# xmcd CD database file
#
# Track frame offsets:
#	150
#	21284
#	45649
#	67251
#	99323
#	129617
#	151695
#	181694
#	217587
#
# Disc length: 3275 seconds
#
# Revision: 0
# Processed by: cddbd v1.5.2PL0 Copyright (c) Steve Scherf et al.
# Submitted via: CDex 1.70beta2
#
DISCID=6c0cc909
DTITLE=shlomit - in the mood for love
DYEAR=2005
DGENRE=Jazz
TTITLE0=Moody's Mood for Love
TTITLE1=Make this City ours tonight
TTITLE2=The Masquerade is over
TTITLE3=You've got a Friend
TTITLE4=Over the Rainbow
TTITLE5=Hey Girl
TTITLE6=Since I fell for You
TTITLE7=(I can recall) Spain
TTITLE8=Crazy Place
EXTD=YEAR: 2005
EXTT0=
EXTT1=
EXTT2=
EXTT3=
EXTT4=
EXTT5=
EXTT6=
EXTT7=
EXTT8=
PLAYORDER=
